<mxfile host="app.diagrams.net" modified="2022-11-18T04:48:55.324Z" agent="5.0 (Windows NT 10.0; Win64; x64) AppleWebKit/537.36 (KHTML, like Gecko) Chrome/107.0.0.0 Safari/537.36" etag="rDrmhDeCjSFmGpUrx6_Q" version="20.5.3" type="github">
  <diagram id="ataYZrJkZOZDOwU-4oHk" name="Page-1">
    <mxGraphModel dx="1038" dy="579" grid="1" gridSize="10" guides="1" tooltips="1" connect="1" arrows="1" fold="1" page="1" pageScale="1" pageWidth="850" pageHeight="1100" math="0" shadow="0">
      <root>
        <mxCell id="0" />
        <mxCell id="1" parent="0" />
        <mxCell id="W7WweDME276XnsfFjmca-6" value="PrintSecurity Application" style="swimlane;startSize=20;horizontal=1;childLayout=treeLayout;horizontalTree=0;resizable=0;containerType=tree;" vertex="1" parent="1">
          <mxGeometry x="60" y="110" width="140" height="190" as="geometry" />
        </mxCell>
        <mxCell id="W7WweDME276XnsfFjmca-24" style="edgeStyle=orthogonalEdgeStyle;rounded=0;orthogonalLoop=1;jettySize=auto;html=1;exitX=0.5;exitY=1;exitDx=0;exitDy=0;entryX=0.5;entryY=0;entryDx=0;entryDy=0;" edge="1" parent="1" source="W7WweDME276XnsfFjmca-8" target="W7WweDME276XnsfFjmca-60">
          <mxGeometry relative="1" as="geometry">
            <mxPoint x="350" y="340" as="targetPoint" />
            <Array as="points">
              <mxPoint x="360" y="360" />
              <mxPoint x="270" y="360" />
            </Array>
          </mxGeometry>
        </mxCell>
        <mxCell id="W7WweDME276XnsfFjmca-58" style="edgeStyle=orthogonalEdgeStyle;rounded=0;orthogonalLoop=1;jettySize=auto;html=1;exitX=0.5;exitY=1;exitDx=0;exitDy=0;entryX=0.5;entryY=0;entryDx=0;entryDy=0;" edge="1" parent="1" source="W7WweDME276XnsfFjmca-10" target="W7WweDME276XnsfFjmca-62">
          <mxGeometry relative="1" as="geometry">
            <mxPoint x="587.5999999999999" y="357.41999999999996" as="targetPoint" />
            <Array as="points">
              <mxPoint x="630" y="360" />
              <mxPoint x="560" y="360" />
            </Array>
          </mxGeometry>
        </mxCell>
        <mxCell id="W7WweDME276XnsfFjmca-59" style="edgeStyle=orthogonalEdgeStyle;rounded=0;orthogonalLoop=1;jettySize=auto;html=1;exitX=0.5;exitY=1;exitDx=0;exitDy=0;entryX=0.5;entryY=0;entryDx=0;entryDy=0;" edge="1" parent="1" source="W7WweDME276XnsfFjmca-10" target="W7WweDME276XnsfFjmca-63">
          <mxGeometry relative="1" as="geometry">
            <mxPoint x="730" y="360" as="targetPoint" />
            <Array as="points">
              <mxPoint x="630" y="360" />
              <mxPoint x="710" y="360" />
            </Array>
          </mxGeometry>
        </mxCell>
        <mxCell id="W7WweDME276XnsfFjmca-10" value="Customer View" style="whiteSpace=wrap;html=1;fillColor=#fff2cc;strokeColor=#330000;strokeWidth=3;" vertex="1" parent="1">
          <mxGeometry x="580" y="270" width="100" height="50" as="geometry" />
        </mxCell>
        <mxCell id="W7WweDME276XnsfFjmca-11" value="" style="edgeStyle=elbowEdgeStyle;elbow=vertical;html=1;rounded=0;" edge="1" parent="1" source="W7WweDME276XnsfFjmca-7" target="W7WweDME276XnsfFjmca-10">
          <mxGeometry relative="1" as="geometry">
            <Array as="points">
              <mxPoint x="550" y="240" />
            </Array>
          </mxGeometry>
        </mxCell>
        <mxCell id="W7WweDME276XnsfFjmca-7" value="&lt;b&gt;PrintSecurity User Interface&lt;/b&gt;" style="whiteSpace=wrap;html=1;strokeColor=default;strokeWidth=2;fillColor=#DBFFFD;perimeterSpacing=3;rounded=0;" vertex="1" parent="1">
          <mxGeometry x="430" y="160" width="100" height="40" as="geometry" />
        </mxCell>
        <mxCell id="W7WweDME276XnsfFjmca-9" value="" style="edgeStyle=elbowEdgeStyle;elbow=vertical;html=1;rounded=0;" edge="1" parent="1" source="W7WweDME276XnsfFjmca-7" target="W7WweDME276XnsfFjmca-8">
          <mxGeometry relative="1" as="geometry">
            <Array as="points">
              <mxPoint x="350" y="240" />
              <mxPoint x="310" y="220" />
              <mxPoint x="170" y="220" />
            </Array>
          </mxGeometry>
        </mxCell>
        <mxCell id="W7WweDME276XnsfFjmca-8" value="Admin View" style="whiteSpace=wrap;html=1;fillColor=#fff2cc;strokeColor=#330000;strokeWidth=3;" vertex="1" parent="1">
          <mxGeometry x="310" y="270" width="100" height="50" as="geometry" />
        </mxCell>
        <mxCell id="W7WweDME276XnsfFjmca-60" value="Guarded" style="whiteSpace=wrap;html=1;strokeColor=default;fillColor=#009900;strokeWidth=3;" vertex="1" parent="1">
          <mxGeometry x="220" y="390" width="100" height="40" as="geometry" />
        </mxCell>
        <mxCell id="W7WweDME276XnsfFjmca-76" value="" style="edgeStyle=orthogonalEdgeStyle;rounded=0;orthogonalLoop=1;jettySize=auto;html=1;" edge="1" parent="1" source="W7WweDME276XnsfFjmca-61" target="W7WweDME276XnsfFjmca-68">
          <mxGeometry relative="1" as="geometry" />
        </mxCell>
        <mxCell id="W7WweDME276XnsfFjmca-61" value="Non-Guarded" style="whiteSpace=wrap;html=1;fillColor=#FF3333;strokeWidth=3;" vertex="1" parent="1">
          <mxGeometry x="375" y="390" width="100" height="40" as="geometry" />
        </mxCell>
        <mxCell id="W7WweDME276XnsfFjmca-62" value="Guarded" style="whiteSpace=wrap;html=1;fillColor=#4D9900;strokeWidth=3;" vertex="1" parent="1">
          <mxGeometry x="510" y="390" width="100" height="40" as="geometry" />
        </mxCell>
        <mxCell id="W7WweDME276XnsfFjmca-75" value="" style="edgeStyle=orthogonalEdgeStyle;rounded=0;orthogonalLoop=1;jettySize=auto;html=1;" edge="1" parent="1" source="W7WweDME276XnsfFjmca-63" target="W7WweDME276XnsfFjmca-74">
          <mxGeometry relative="1" as="geometry" />
        </mxCell>
        <mxCell id="W7WweDME276XnsfFjmca-63" value="Non-Guarded" style="whiteSpace=wrap;html=1;fillColor=#FF3333;strokeWidth=3;" vertex="1" parent="1">
          <mxGeometry x="660" y="390" width="100" height="40" as="geometry" />
        </mxCell>
        <mxCell id="W7WweDME276XnsfFjmca-65" style="edgeStyle=orthogonalEdgeStyle;rounded=0;orthogonalLoop=1;jettySize=auto;html=1;exitX=0.5;exitY=1;exitDx=0;exitDy=0;entryX=0.5;entryY=0;entryDx=0;entryDy=0;" edge="1" parent="1" target="W7WweDME276XnsfFjmca-61">
          <mxGeometry relative="1" as="geometry">
            <mxPoint x="360" y="320" as="sourcePoint" />
            <mxPoint x="460" y="400" as="targetPoint" />
            <Array as="points">
              <mxPoint x="360" y="360" />
              <mxPoint x="425" y="360" />
            </Array>
          </mxGeometry>
        </mxCell>
        <mxCell id="W7WweDME276XnsfFjmca-68" value="Remeadition" style="whiteSpace=wrap;html=1;rounded=0;shadow=0;glass=0;sketch=0;fillColor=#FFFF00;strokeWidth=3;" vertex="1" parent="1">
          <mxGeometry x="365" y="480" width="120" height="60" as="geometry" />
        </mxCell>
        <mxCell id="W7WweDME276XnsfFjmca-74" value="Security Bulletin&#39;s" style="whiteSpace=wrap;html=1;fillColor=#ffe6cc;strokeColor=#330000;strokeWidth=3;" vertex="1" parent="1">
          <mxGeometry x="650" y="480" width="120" height="60" as="geometry" />
        </mxCell>
      </root>
    </mxGraphModel>
  </diagram>
</mxfile>
